# Blender v2.79 (sub 0) OBJ File: 'logo.blend'
# www.blender.org
mtllib logo.mtl
o Cylinder.004_Cylinder.005
v -4.996417 0.034291 0.018822
v -4.996417 0.607186 0.018822
v -4.892337 0.034291 -0.947182
v -4.892337 0.607186 -0.947182
v -4.601799 0.034291 -1.874319
v -4.601799 0.607186 -1.874319
v -4.135968 0.034291 -2.726961
v -4.135968 0.607186 -2.726961
v -3.512746 0.034291 -3.472339
v -3.512746 0.607186 -3.472339
v -2.756082 0.034291 -4.081812
v -2.756082 0.607186 -4.081812
v -1.895056 0.034291 -4.531955
v -1.895056 0.607186 -4.531955
v -0.962755 0.034291 -4.805471
v -0.962755 0.607186 -4.805471
v 0.004992 0.034291 -4.891850
v 0.004992 0.607186 -4.891850
v 0.970996 0.034291 -4.787770
v 0.970996 0.607186 -4.787770
v 1.898133 0.034291 -4.497231
v 1.898133 0.607186 -4.497231
v 2.750775 0.034291 -4.031401
v 2.750775 0.607186 -4.031401
v 3.496154 0.034291 -3.408178
v 3.496154 0.607186 -3.408178
v 4.105627 0.034291 -2.651514
v 4.105627 0.607186 -2.651514
v 4.555770 0.034291 -1.790487
v 4.555770 0.607186 -1.790487
v 4.829286 0.034291 -0.858186
v 4.829286 0.607186 -0.858186
v 4.915664 0.034291 0.109562
v 4.915664 0.607186 0.109562
v 4.811584 0.034291 1.075566
v 4.811584 0.607186 1.075566
v 4.521045 0.034291 2.002703
v 4.521045 0.607186 2.002703
v 4.055213 0.034291 2.855345
v 4.055213 0.607186 2.855345
v 3.431990 0.034291 3.600724
v 3.431990 0.607186 3.600724
v 2.675326 0.034291 4.210196
v 2.675326 0.607186 4.210196
v 1.814299 0.034291 4.660339
v 1.814299 0.607186 4.660339
v 0.881997 0.034291 4.933855
v 0.881997 0.607186 4.933855
v -0.085750 0.034291 5.020231
v -0.085750 0.607186 5.020231
v -1.051754 0.034291 4.916151
v -1.051754 0.607186 4.916151
v -1.978892 0.034291 4.625611
v -1.978892 0.607186 4.625611
v -2.831533 0.034291 4.159779
v -2.831533 0.607186 4.159779
v -3.576912 0.034291 3.536556
v -3.576912 0.607186 3.536556
v -4.186383 0.034291 2.779891
v -4.186383 0.607186 2.779891
v -4.636526 0.034291 1.918863
v -4.636526 0.607186 1.918863
v -4.910041 0.034291 0.986562
v -4.910041 0.607186 0.986562
v -4.065474 0.034291 0.027344
v -4.065474 0.607186 0.027344
v -3.980968 0.034291 -0.757238
v -3.980968 0.607186 -0.757238
v -3.745027 0.034291 -1.510213
v -3.745027 0.607186 -1.510213
v -3.366698 0.034291 -2.202693
v -3.366698 0.607186 -2.202693
v -2.860542 0.034291 -2.808084
v -2.860542 0.607186 -2.808084
v -2.245986 0.034291 -3.303074
v -2.245986 0.607186 -3.303074
v -1.546696 0.034291 -3.668661
v -1.546696 0.607186 -3.668661
v -0.789527 0.034291 -3.890777
v -0.789527 0.607186 -3.890777
v -0.003530 0.034291 -3.960906
v -0.003530 0.607186 -3.960906
v 0.781052 0.034291 -3.876400
v 0.781052 0.607186 -3.876400
v 1.534027 0.034291 -3.640460
v 1.534027 0.607186 -3.640460
v 2.226508 0.034291 -3.262131
v 2.226508 0.607186 -3.262131
v 2.831899 0.034291 -2.755974
v 2.831899 0.607186 -2.755974
v 3.326889 0.034291 -2.141418
v 3.326889 0.607186 -2.141418
v 3.692477 0.034291 -1.442127
v 3.692477 0.607186 -1.442127
v 3.914593 0.034291 -0.684958
v 3.914593 0.607186 -0.684958
v 3.984721 0.034291 0.101040
v 3.984721 0.607186 0.101040
v 3.900215 0.034291 0.885622
v 3.900215 0.607186 0.885622
v 3.664273 0.034291 1.638598
v 3.664273 0.607186 1.638598
v 3.285944 0.034291 2.331079
v 3.285944 0.607186 2.331079
v 2.779787 0.034291 2.936470
v 2.779787 0.607186 2.936470
v 2.165230 0.034291 3.431457
v 2.165230 0.607186 3.431457
v 1.465938 0.034291 3.797046
v 1.465938 0.607186 3.797046
v 0.708769 0.034291 4.019161
v 0.708769 0.607186 4.019161
v -0.077229 0.034291 4.089288
v -0.077229 0.607186 4.089288
v -0.861811 0.034291 4.004781
v -0.861811 0.607186 4.004781
v -1.614787 0.034291 3.768839
v -1.614787 0.607186 3.768839
v -2.307267 0.034291 3.390509
v -2.307267 0.607186 3.390509
v -2.912658 0.034291 2.884351
v -2.912658 0.607186 2.884351
v -3.407645 0.034291 2.269794
v -3.407645 0.607186 2.269794
v -3.773233 0.034291 1.570502
v -3.773233 0.607186 1.570502
v -3.995347 0.034291 0.813333
v -3.995347 0.607186 0.813333
vn -0.9942 0.0000 -0.1071
vn -0.9542 0.0000 -0.2990
vn -0.8776 0.0000 -0.4794
vn -0.7672 0.0000 -0.6414
vn -0.6273 0.0000 -0.7788
vn -0.4633 0.0000 -0.8862
vn -0.2815 0.0000 -0.9596
vn -0.0889 0.0000 -0.9960
vn 0.1071 0.0000 -0.9942
vn 0.2990 0.0000 -0.9542
vn 0.4794 0.0000 -0.8776
vn 0.6414 0.0000 -0.7672
vn 0.7788 0.0000 -0.6273
vn 0.8862 0.0000 -0.4633
vn 0.9596 0.0000 -0.2815
vn 0.9960 0.0000 -0.0889
vn 0.9942 0.0000 0.1071
vn 0.9542 0.0000 0.2990
vn 0.8776 0.0000 0.4795
vn 0.7672 0.0000 0.6414
vn 0.6273 0.0000 0.7788
vn 0.4633 0.0000 0.8862
vn 0.2815 0.0000 0.9596
vn 0.0889 0.0000 0.9960
vn -0.1071 0.0000 0.9942
vn -0.2990 0.0000 0.9542
vn -0.4795 0.0000 0.8776
vn -0.6414 0.0000 0.7672
vn -0.7788 0.0000 0.6273
vn -0.8862 0.0000 0.4633
vn -0.9596 0.0000 0.2815
vn -0.9960 0.0000 0.0889
vn 0.9543 0.0000 0.2990
vn -0.2990 0.0000 0.9543
vn -0.4794 0.0000 0.8776
vn -0.8776 0.0000 -0.4795
vn 0.4795 0.0000 -0.8776
vn 0.0000 -1.0000 -0.0000
vn 0.0000 1.0000 -0.0000
usemtl Material.002
s off
f 1//1 2//1 4//1 3//1
f 3//2 4//2 6//2 5//2
f 5//3 6//3 8//3 7//3
f 7//4 8//4 10//4 9//4
f 9//5 10//5 12//5 11//5
f 11//6 12//6 14//6 13//6
f 13//7 14//7 16//7 15//7
f 15//8 16//8 18//8 17//8
f 17//9 18//9 20//9 19//9
f 19//10 20//10 22//10 21//10
f 21//11 22//11 24//11 23//11
f 23//12 24//12 26//12 25//12
f 25//13 26//13 28//13 27//13
f 27//14 28//14 30//14 29//14
f 29//15 30//15 32//15 31//15
f 31//16 32//16 34//16 33//16
f 33//17 34//17 36//17 35//17
f 35//18 36//18 38//18 37//18
f 37//19 38//19 40//19 39//19
f 39//20 40//20 42//20 41//20
f 41//21 42//21 44//21 43//21
f 43//22 44//22 46//22 45//22
f 45//23 46//23 48//23 47//23
f 47//24 48//24 50//24 49//24
f 49//25 50//25 52//25 51//25
f 51//26 52//26 54//26 53//26
f 53//27 54//27 56//27 55//27
f 55//28 56//28 58//28 57//28
f 57//29 58//29 60//29 59//29
f 59//30 60//30 62//30 61//30
f 61//31 62//31 64//31 63//31
f 63//32 64//32 2//32 1//32
f 65//17 67//17 68//17 66//17
f 67//33 69//33 70//33 68//33
f 69//19 71//19 72//19 70//19
f 71//20 73//20 74//20 72//20
f 73//21 75//21 76//21 74//21
f 75//22 77//22 78//22 76//22
f 77//23 79//23 80//23 78//23
f 79//24 81//24 82//24 80//24
f 81//25 83//25 84//25 82//25
f 83//34 85//34 86//34 84//34
f 85//35 87//35 88//35 86//35
f 87//28 89//28 90//28 88//28
f 89//29 91//29 92//29 90//29
f 91//30 93//30 94//30 92//30
f 93//31 95//31 96//31 94//31
f 95//32 97//32 98//32 96//32
f 97//1 99//1 100//1 98//1
f 99//2 101//2 102//2 100//2
f 101//36 103//36 104//36 102//36
f 103//4 105//4 106//4 104//4
f 105//5 107//5 108//5 106//5
f 107//6 109//6 110//6 108//6
f 109//7 111//7 112//7 110//7
f 111//8 113//8 114//8 112//8
f 113//9 115//9 116//9 114//9
f 115//10 117//10 118//10 116//10
f 117//37 119//37 120//37 118//37
f 119//12 121//12 122//12 120//12
f 121//13 123//13 124//13 122//13
f 123//14 125//14 126//14 124//14
f 125//15 127//15 128//15 126//15
f 127//16 65//16 66//16 128//16
f 1//38 3//38 67//38 65//38
f 4//39 2//39 66//39 68//39
f 3//38 5//38 69//38 67//38
f 6//39 4//39 68//39 70//39
f 5//38 7//38 71//38 69//38
f 8//39 6//39 70//39 72//39
f 7//38 9//38 73//38 71//38
f 10//39 8//39 72//39 74//39
f 9//38 11//38 75//38 73//38
f 12//39 10//39 74//39 76//39
f 11//38 13//38 77//38 75//38
f 14//39 12//39 76//39 78//39
f 13//38 15//38 79//38 77//38
f 16//39 14//39 78//39 80//39
f 15//38 17//38 81//38 79//38
f 18//39 16//39 80//39 82//39
f 17//38 19//38 83//38 81//38
f 20//39 18//39 82//39 84//39
f 19//38 21//38 85//38 83//38
f 22//39 20//39 84//39 86//39
f 21//38 23//38 87//38 85//38
f 24//39 22//39 86//39 88//39
f 23//38 25//38 89//38 87//38
f 26//39 24//39 88//39 90//39
f 25//38 27//38 91//38 89//38
f 28//39 26//39 90//39 92//39
f 27//38 29//38 93//38 91//38
f 30//39 28//39 92//39 94//39
f 29//38 31//38 95//38 93//38
f 32//39 30//39 94//39 96//39
f 31//38 33//38 97//38 95//38
f 34//39 32//39 96//39 98//39
f 33//38 35//38 99//38 97//38
f 36//39 34//39 98//39 100//39
f 35//38 37//38 101//38 99//38
f 38//39 36//39 100//39 102//39
f 37//38 39//38 103//38 101//38
f 40//39 38//39 102//39 104//39
f 39//38 41//38 105//38 103//38
f 42//39 40//39 104//39 106//39
f 41//38 43//38 107//38 105//38
f 44//39 42//39 106//39 108//39
f 43//38 45//38 109//38 107//38
f 46//39 44//39 108//39 110//39
f 45//38 47//38 111//38 109//38
f 48//39 46//39 110//39 112//39
f 47//38 49//38 113//38 111//38
f 50//39 48//39 112//39 114//39
f 49//38 51//38 115//38 113//38
f 52//39 50//39 114//39 116//39
f 51//38 53//38 117//38 115//38
f 54//39 52//39 116//39 118//39
f 53//38 55//38 119//38 117//38
f 56//39 54//39 118//39 120//39
f 55//38 57//38 121//38 119//38
f 58//39 56//39 120//39 122//39
f 57//38 59//38 123//38 121//38
f 60//39 58//39 122//39 124//39
f 59//38 61//38 125//38 123//38
f 62//39 60//39 124//39 126//39
f 61//38 63//38 127//38 125//38
f 64//39 62//39 126//39 128//39
f 63//38 1//38 65//38 127//38
f 2//39 64//39 128//39 66//39
o Cylinder.003_Cylinder.001
v -3.024893 0.033537 0.022869
v -3.024893 0.606847 0.022869
v -2.961894 0.033537 -0.561850
v -2.961894 0.606847 -0.561850
v -2.786032 0.033537 -1.123043
v -2.786032 0.606847 -1.123043
v -2.504066 0.033537 -1.639144
v -2.504066 0.606847 -1.639144
v -2.126832 0.033537 -2.090319
v -2.126832 0.606847 -2.090319
v -1.668826 0.033537 -2.459231
v -1.668826 0.606847 -2.459231
v -1.147650 0.033537 -2.731701
v -1.147650 0.606847 -2.731701
v -0.583331 0.033537 -2.897260
v -0.583331 0.606847 -2.897260
v 0.002443 0.033537 -2.949544
v 0.002443 0.606847 -2.949544
v 0.587161 0.033537 -2.886545
v 0.587161 0.606847 -2.886545
v 1.148354 0.033537 -2.710683
v 1.148354 0.606847 -2.710683
v 1.664456 0.033537 -2.428718
v 1.664456 0.606847 -2.428718
v 2.115631 0.033537 -2.051483
v 2.115631 0.606847 -2.051483
v 2.484543 0.033537 -1.593477
v 2.484543 0.606847 -1.593477
v 2.757013 0.033537 -1.072300
v 2.757013 0.606847 -1.072300
v 2.922571 0.033537 -0.507982
v 2.922571 0.606847 -0.507982
v 2.974856 0.033537 0.077793
v 2.974856 0.606847 0.077793
v 2.911856 0.033537 0.662512
v 2.911856 0.606847 0.662512
v 2.735994 0.033537 1.223705
v 2.735994 0.606847 1.223705
v 2.454028 0.033537 1.739806
v 2.454028 0.606847 1.739806
v 2.076793 0.033537 2.190981
v 2.076793 0.606847 2.190981
v 1.618787 0.033537 2.559893
v 1.618787 0.606847 2.559893
v 1.097610 0.033537 2.832363
v 1.097610 0.606847 2.832363
v 0.533291 0.033537 2.997921
v 0.533291 0.606847 2.997921
v -0.052483 0.033537 3.050205
v -0.052483 0.606847 3.050205
v -0.637202 0.033537 2.987205
v -0.637202 0.606847 2.987205
v -1.198395 0.033537 2.811342
v -1.198395 0.606847 2.811342
v -1.714496 0.033537 2.529376
v -1.714496 0.606847 2.529376
v -2.165671 0.033537 2.152140
v -2.165671 0.606847 2.152140
v -2.534582 0.033537 1.694134
v -2.534582 0.606847 1.694134
v -2.807052 0.033537 1.172957
v -2.807052 0.606847 1.172957
v -2.972610 0.033537 0.608638
v -2.972610 0.606847 0.608638
v -2.024935 0.033537 0.032022
v -2.024935 0.606847 0.032022
v -1.982947 0.033537 -0.357806
v -1.982947 0.606847 -0.357806
v -1.865717 0.033537 -0.731931
v -1.865717 0.606847 -0.731931
v -1.677740 0.033537 -1.075998
v -1.677740 0.606847 -1.075998
v -1.426251 0.033537 -1.376793
v -1.426251 0.606847 -1.376793
v -1.120901 0.033537 -1.622734
v -1.120901 0.606847 -1.622734
v -0.773451 0.033537 -1.804381
v -0.773451 0.606847 -1.804381
v -0.397243 0.033537 -1.914742
v -0.397243 0.606847 -1.914742
v -0.006711 0.033537 -1.949586
v -0.006711 0.606847 -1.949586
v 0.383117 0.033537 -1.907598
v 0.383117 0.606847 -1.907598
v 0.757242 0.033537 -1.790369
v 0.757242 0.606847 -1.790369
v 1.101309 0.033537 -1.602391
v 1.101309 0.606847 -1.602391
v 1.402105 0.033537 -1.350902
v 1.402105 0.606847 -1.350902
v 1.648046 0.033537 -1.045552
v 1.648046 0.606847 -1.045552
v 1.829693 0.033537 -0.698102
v 1.829693 0.606847 -0.698102
v 1.940054 0.033537 -0.321893
v 1.940054 0.606847 -0.321893
v 1.974898 0.033537 0.068639
v 1.974898 0.606847 0.068639
v 1.932910 0.033537 0.458468
v 1.932910 0.606847 0.458468
v 1.815679 0.033537 0.832593
v 1.815679 0.606847 0.832593
v 1.627702 0.033537 1.176659
v 1.627702 0.606847 1.176659
v 1.376212 0.033537 1.477455
v 1.376212 0.606847 1.477455
v 1.070862 0.033537 1.723396
v 1.070862 0.606847 1.723396
v 0.723411 0.033537 1.905042
v 0.723411 0.606847 1.905042
v 0.347203 0.033537 2.015403
v 0.347203 0.606847 2.015403
v -0.043329 0.033537 2.050246
v -0.043329 0.606847 2.050246
v -0.433158 0.033537 2.008258
v -0.433158 0.606847 2.008258
v -0.807283 0.033537 1.891027
v -0.807283 0.606847 1.891027
v -1.151349 0.033537 1.703049
v -1.151349 0.606847 1.703049
v -1.452145 0.033537 1.451559
v -1.452145 0.606847 1.451559
v -1.698085 0.033537 1.146209
v -1.698085 0.606847 1.146209
v -1.879732 0.033537 0.798758
v -1.879732 0.606847 0.798758
v -1.990092 0.033537 0.422550
v -1.990092 0.606847 0.422550
vn -0.9942 0.0000 -0.1071
vn -0.9542 0.0000 -0.2990
vn -0.8776 0.0000 -0.4794
vn -0.7672 0.0000 -0.6414
vn -0.6273 0.0000 -0.7788
vn -0.4633 0.0000 -0.8862
vn -0.2815 0.0000 -0.9596
vn -0.0889 0.0000 -0.9960
vn 0.1071 0.0000 -0.9942
vn 0.2990 0.0000 -0.9542
vn 0.4794 0.0000 -0.8776
vn 0.6414 0.0000 -0.7672
vn 0.7788 0.0000 -0.6273
vn 0.8862 0.0000 -0.4633
vn 0.9596 0.0000 -0.2815
vn 0.9960 0.0000 -0.0889
vn 0.9942 0.0000 0.1071
vn 0.9542 0.0000 0.2990
vn 0.8776 0.0000 0.4794
vn 0.7672 0.0000 0.6414
vn 0.6273 0.0000 0.7788
vn 0.4633 0.0000 0.8862
vn 0.2815 0.0000 0.9596
vn 0.0889 0.0000 0.9960
vn -0.1071 0.0000 0.9942
vn -0.2990 0.0000 0.9542
vn -0.4795 0.0000 0.8776
vn -0.6414 0.0000 0.7672
vn -0.7788 0.0000 0.6273
vn -0.8862 0.0000 0.4633
vn -0.9596 0.0000 0.2815
vn -0.9960 0.0000 0.0889
vn 0.9543 0.0000 0.2990
vn 0.8776 0.0000 0.4795
vn -0.2990 0.0000 0.9543
vn -0.4794 0.0000 0.8776
vn -0.9543 0.0000 -0.2990
vn -0.8776 0.0000 -0.4795
vn 0.4795 0.0000 -0.8776
vn 0.0000 -1.0000 -0.0000
vn 0.0000 1.0000 0.0000
usemtl Material
s off
f 129//40 130//40 132//40 131//40
f 131//41 132//41 134//41 133//41
f 133//42 134//42 136//42 135//42
f 135//43 136//43 138//43 137//43
f 137//44 138//44 140//44 139//44
f 139//45 140//45 142//45 141//45
f 141//46 142//46 144//46 143//46
f 143//47 144//47 146//47 145//47
f 145//48 146//48 148//48 147//48
f 147//49 148//49 150//49 149//49
f 149//50 150//50 152//50 151//50
f 151//51 152//51 154//51 153//51
f 153//52 154//52 156//52 155//52
f 155//53 156//53 158//53 157//53
f 157//54 158//54 160//54 159//54
f 159//55 160//55 162//55 161//55
f 161//56 162//56 164//56 163//56
f 163//57 164//57 166//57 165//57
f 165//58 166//58 168//58 167//58
f 167//59 168//59 170//59 169//59
f 169//60 170//60 172//60 171//60
f 171//61 172//61 174//61 173//61
f 173//62 174//62 176//62 175//62
f 175//63 176//63 178//63 177//63
f 177//64 178//64 180//64 179//64
f 179//65 180//65 182//65 181//65
f 181//66 182//66 184//66 183//66
f 183//67 184//67 186//67 185//67
f 185//68 186//68 188//68 187//68
f 187//69 188//69 190//69 189//69
f 189//70 190//70 192//70 191//70
f 191//71 192//71 130//71 129//71
f 193//56 195//56 196//56 194//56
f 195//72 197//72 198//72 196//72
f 197//73 199//73 200//73 198//73
f 199//59 201//59 202//59 200//59
f 201//60 203//60 204//60 202//60
f 203//61 205//61 206//61 204//61
f 205//62 207//62 208//62 206//62
f 207//63 209//63 210//63 208//63
f 209//64 211//64 212//64 210//64
f 211//74 213//74 214//74 212//74
f 213//75 215//75 216//75 214//75
f 215//67 217//67 218//67 216//67
f 217//68 219//68 220//68 218//68
f 219//69 221//69 222//69 220//69
f 221//70 223//70 224//70 222//70
f 223//71 225//71 226//71 224//71
f 225//40 227//40 228//40 226//40
f 227//76 229//76 230//76 228//76
f 229//77 231//77 232//77 230//77
f 231//43 233//43 234//43 232//43
f 233//44 235//44 236//44 234//44
f 235//45 237//45 238//45 236//45
f 237//46 239//46 240//46 238//46
f 239//47 241//47 242//47 240//47
f 241//48 243//48 244//48 242//48
f 243//49 245//49 246//49 244//49
f 245//78 247//78 248//78 246//78
f 247//51 249//51 250//51 248//51
f 249//52 251//52 252//52 250//52
f 251//53 253//53 254//53 252//53
f 253//54 255//54 256//54 254//54
f 255//55 193//55 194//55 256//55
f 129//79 131//79 195//79 193//79
f 132//80 130//80 194//80 196//80
f 131//79 133//79 197//79 195//79
f 134//80 132//80 196//80 198//80
f 133//79 135//79 199//79 197//79
f 136//80 134//80 198//80 200//80
f 135//79 137//79 201//79 199//79
f 138//80 136//80 200//80 202//80
f 137//79 139//79 203//79 201//79
f 140//80 138//80 202//80 204//80
f 139//79 141//79 205//79 203//79
f 142//80 140//80 204//80 206//80
f 141//79 143//79 207//79 205//79
f 144//80 142//80 206//80 208//80
f 143//79 145//79 209//79 207//79
f 146//80 144//80 208//80 210//80
f 145//79 147//79 211//79 209//79
f 148//80 146//80 210//80 212//80
f 147//79 149//79 213//79 211//79
f 150//80 148//80 212//80 214//80
f 149//79 151//79 215//79 213//79
f 152//80 150//80 214//80 216//80
f 151//79 153//79 217//79 215//79
f 154//80 152//80 216//80 218//80
f 153//79 155//79 219//79 217//79
f 156//80 154//80 218//80 220//80
f 155//79 157//79 221//79 219//79
f 158//80 156//80 220//80 222//80
f 157//79 159//79 223//79 221//79
f 160//80 158//80 222//80 224//80
f 159//79 161//79 225//79 223//79
f 162//80 160//80 224//80 226//80
f 161//79 163//79 227//79 225//79
f 164//80 162//80 226//80 228//80
f 163//79 165//79 229//79 227//79
f 166//80 164//80 228//80 230//80
f 165//79 167//79 231//79 229//79
f 168//80 166//80 230//80 232//80
f 167//79 169//79 233//79 231//79
f 170//80 168//80 232//80 234//80
f 169//79 171//79 235//79 233//79
f 172//80 170//80 234//80 236//80
f 171//79 173//79 237//79 235//79
f 174//80 172//80 236//80 238//80
f 173//79 175//79 239//79 237//79
f 176//80 174//80 238//80 240//80
f 175//79 177//79 241//79 239//79
f 178//80 176//80 240//80 242//80
f 177//79 179//79 243//79 241//79
f 180//80 178//80 242//80 244//80
f 179//79 181//79 245//79 243//79
f 182//80 180//80 244//80 246//80
f 181//79 183//79 247//79 245//79
f 184//80 182//80 246//80 248//80
f 183//79 185//79 249//79 247//79
f 186//80 184//80 248//80 250//80
f 185//79 187//79 251//79 249//79
f 188//80 186//80 250//80 252//80
f 187//79 189//79 253//79 251//79
f 190//80 188//80 252//80 254//80
f 189//79 191//79 255//79 253//79
f 192//80 190//80 254//80 256//80
f 191//79 129//79 193//79 255//79
f 130//80 192//80 256//80 194//80
o Cube_Cube.002
v -1.952667 0.033736 0.446491
v -1.952667 0.600918 0.446491
v -4.507953 0.033736 0.423099
v -4.507953 0.600918 0.423099
v -1.944989 0.033736 -0.392226
v -1.944989 0.600918 -0.392226
v -4.500275 0.033736 -0.415618
v -4.500275 0.600918 -0.415618
vn -0.0092 0.0000 1.0000
vn -1.0000 0.0000 -0.0092
vn 0.0092 0.0000 -1.0000
vn 1.0000 0.0000 0.0092
vn 0.0000 -1.0000 0.0000
vn 0.0000 1.0000 0.0000
usemtl Material.006
s off
f 257//81 258//81 260//81 259//81
f 259//82 260//82 264//82 263//82
f 263//83 264//83 262//83 261//83
f 261//84 262//84 258//84 257//84
f 259//85 263//85 261//85 257//85
f 264//86 260//86 258//86 262//86
o Cylinder_Cylinder.002
v -1.024977 0.030501 0.041176
v -1.024977 0.602773 0.041176
v -1.007273 0.030501 -0.137226
v -1.007273 0.602773 -0.137226
v -0.957998 0.030501 -0.309600
v -0.957998 0.602773 -0.309600
v -0.878737 0.030501 -0.470406
v -0.878737 0.602773 -0.470406
v -0.772036 0.030501 -0.614474
v -0.772036 0.602773 -0.614474
v -0.641326 0.030501 -0.737176
v -0.641326 0.602773 -0.737176
v -0.490807 0.030501 -0.834566
v -0.490807 0.602773 -0.834566
v -0.325317 0.030501 -0.903515
v -0.325317 0.602773 -0.903515
v -0.150175 0.030501 -0.941807
v -0.150175 0.602773 -0.941807
v 0.028989 0.030501 -0.948210
v 0.028989 0.602773 -0.948210
v 0.206417 0.030501 -0.922520
v 0.206417 0.602773 -0.922520
v 0.376407 0.030501 -0.865561
v 0.376407 0.602773 -0.865561
v 0.533494 0.030501 -0.779165
v 0.533494 0.602773 -0.779165
v 0.672631 0.030501 -0.666109
v 0.672631 0.602773 -0.666109
v 0.789345 0.030501 -0.530025
v 0.789345 0.602773 -0.530025
v 0.879884 0.030501 -0.375288
v 0.879884 0.602773 -0.375288
v 0.941339 0.030501 -0.206871
v 0.941339 0.602773 -0.206871
v 0.971734 0.030501 -0.030188
v 0.971734 0.602773 -0.030188
v 0.970093 0.030501 0.149083
v 0.970093 0.602773 0.149083
v 0.936468 0.030501 0.325180
v 0.936468 0.602773 0.325180
v 0.871940 0.030501 0.492443
v 0.871940 0.602773 0.492443
v 0.778584 0.030501 0.645497
v 0.778584 0.602773 0.645497
v 0.659398 0.030501 0.779421
v 0.659398 0.602773 0.779421
v 0.518215 0.030501 0.889911
v 0.518215 0.602773 0.889911
v 0.359572 0.030501 0.973417
v 0.359572 0.602773 0.973417
v 0.188568 0.030501 1.027254
v 0.188568 0.602773 1.027254
v 0.010699 0.030501 1.049692
v 0.010699 0.602773 1.049692
v -0.168318 0.030501 1.040010
v -0.168318 0.602773 1.040010
v -0.342729 0.030501 0.998518
v -0.342729 0.602773 0.998518
v -0.506929 0.030501 0.926551
v -0.506929 0.602773 0.926551
v -0.655640 0.030501 0.826421
v -0.655640 0.602773 0.826421
v -0.784082 0.030501 0.701347
v -0.784082 0.602773 0.701347
v -0.888127 0.030501 0.555349
v -0.888127 0.602773 0.555349
v -0.964431 0.030501 0.393119
v -0.964431 0.602773 0.393119
v -1.010542 0.030501 0.219872
v -1.010542 0.602773 0.219872
vn -0.9951 0.0000 -0.0988
vn -0.9615 0.0000 -0.2748
vn -0.8970 0.0000 -0.4421
vn -0.8036 0.0000 -0.5952
vn -0.6844 0.0000 -0.7291
vn -0.5432 0.0000 -0.8396
vn -0.3846 0.0000 -0.9231
vn -0.2136 0.0000 -0.9769
vn -0.0357 0.0000 -0.9994
vn 0.1433 0.0000 -0.9897
vn 0.3177 0.0000 -0.9482
vn 0.4819 0.0000 -0.8762
vn 0.6306 0.0000 -0.7761
vn 0.7591 0.0000 -0.6510
vn 0.8631 0.0000 -0.5050
vn 0.9394 0.0000 -0.3428
vn 0.9855 0.0000 -0.1695
vn 1.0000 0.0000 0.0092
vn 0.9823 0.0000 0.1876
vn 0.9330 0.0000 0.3599
vn 0.8537 0.0000 0.5207
vn 0.7470 0.0000 0.6648
vn 0.6163 0.0000 0.7875
vn 0.4658 0.0000 0.8849
vn 0.3003 0.0000 0.9538
vn 0.1252 0.0000 0.9921
vn -0.0540 0.0000 0.9985
vn -0.2314 0.0000 0.9728
vn -0.4014 0.0000 0.9159
vn -0.5585 0.0000 0.8295
vn -0.6977 0.0000 0.7164
vn -0.8144 0.0000 0.5804
vn -0.9049 0.0000 0.4256
vn 0.0000 1.0000 -0.0000
vn -0.9664 0.0000 0.2572
vn -0.9968 0.0000 0.0805
vn 0.0000 -1.0000 -0.0000
usemtl Material.005
s off
f 265//87 266//87 268//87 267//87
f 267//88 268//88 270//88 269//88
f 269//89 270//89 272//89 271//89
f 271//90 272//90 274//90 273//90
f 273//91 274//91 276//91 275//91
f 275//92 276//92 278//92 277//92
f 277//93 278//93 280//93 279//93
f 279//94 280//94 282//94 281//94
f 281//95 282//95 284//95 283//95
f 283//96 284//96 286//96 285//96
f 285//97 286//97 288//97 287//97
f 287//98 288//98 290//98 289//98
f 289//99 290//99 292//99 291//99
f 291//100 292//100 294//100 293//100
f 293//101 294//101 296//101 295//101
f 295//102 296//102 298//102 297//102
f 297//103 298//103 300//103 299//103
f 299//104 300//104 302//104 301//104
f 301//105 302//105 304//105 303//105
f 303//106 304//106 306//106 305//106
f 305//107 306//107 308//107 307//107
f 307//108 308//108 310//108 309//108
f 309//109 310//109 312//109 311//109
f 311//110 312//110 314//110 313//110
f 313//111 314//111 316//111 315//111
f 315//112 316//112 318//112 317//112
f 317//113 318//113 320//113 319//113
f 319//114 320//114 322//114 321//114
f 321//115 322//115 324//115 323//115
f 323//116 324//116 326//116 325//116
f 325//117 326//117 328//117 327//117
f 327//118 328//118 330//118 329//118
f 329//119 330//119 332//119 331//119
f 268//120 266//120 334//120 332//120 330//120 328//120 326//120 324//120 322//120 320//120 318//120 316//120 314//120 312//120 310//120 308//120 306//120 304//120 302//120 300//120 298//120 296//120 294//120 292//120 290//120 288//120 286//120 284//120 282//120 280//120 278//120 276//120 274//120 272//120 270//120
f 331//121 332//121 334//121 333//121
f 333//122 334//122 266//122 265//122
f 265//123 267//123 269//123 271//123 273//123 275//123 277//123 279//123 281//123 283//123 285//123 287//123 289//123 291//123 293//123 295//123 297//123 299//123 301//123 303//123 305//123 307//123 309//123 311//123 313//123 315//123 317//123 319//123 321//123 323//123 325//123 327//123 329//123 331//123 333//123
o Torus.003
v 0.455346 0.067885 -4.149794
v 0.464789 0.182264 -4.232357
l 335 336
