{
    "accessors" : [
        {
            "bufferView" : 0, 
            "componentType" : 5121, 
            "count" : 180, 
            "max" : [
                61
            ], 
            "min" : [
                0
            ], 
            "type" : "SCALAR"
        }, 
        {
            "bufferView" : 1, 
            "componentType" : 5126, 
            "count" : 62, 
            "max" : [
                4.4155497550964355, 
                0.19999998807907104, 
                4.4022064208984375
            ], 
            "min" : [
                -4.4155497550964355, 
                -0.19999998807907104, 
                -4.420000076293945
            ], 
            "type" : "VEC3"
        }, 
        {
            "bufferView" : 2, 
            "componentType" : 5126, 
            "count" : 62, 
            "max" : [
                0.9989928603172302, 
                0.0, 
                0.9959715604782104
            ], 
            "min" : [
                -0.9989928603172302, 
                0.0, 
                -1.0
            ], 
            "type" : "VEC3"
        }, 
        {
            "bufferView" : 3, 
            "componentType" : 5123, 
            "count" : 768, 
            "max" : [
                423
            ], 
            "min" : [
                0
            ], 
            "type" : "SCALAR"
        }, 
        {
            "bufferView" : 4, 
            "componentType" : 5126, 
            "count" : 424, 
            "max" : [
                3.0, 
                0.31289565563201904, 
                3.0
            ], 
            "min" : [
                -3.0, 
                -0.31289565563201904, 
                -3.0
            ], 
            "type" : "VEC3"
        }, 
        {
            "bufferView" : 5, 
            "componentType" : 5126, 
            "count" : 424, 
            "max" : [
                0.9951881766319275, 
                1.0, 
                0.9951881170272827
            ], 
            "min" : [
                -0.9951880574226379, 
                -1.0, 
                -0.9951880574226379
            ], 
            "type" : "VEC3"
        }, 
        {
            "bufferView" : 6, 
            "componentType" : 5121, 
            "count" : 36, 
            "max" : [
                23
            ], 
            "min" : [
                0
            ], 
            "type" : "SCALAR"
        }, 
        {
            "bufferView" : 7, 
            "componentType" : 5126, 
            "count" : 24, 
            "max" : [
                0.25000014901161194, 
                0.25000014901161194, 
                1.865221619606018
            ], 
            "min" : [
                -0.25000014901161194, 
                -0.19270002841949463, 
                -0.25000014901161194
            ], 
            "type" : "VEC3"
        }, 
        {
            "bufferView" : 8, 
            "componentType" : 5126, 
            "count" : 24, 
            "max" : [
                1.0, 
                1.0, 
                0.9999999403953552
            ], 
            "min" : [
                -1.0, 
                -1.0, 
                -0.9999999403953552
            ], 
            "type" : "VEC3"
        }, 
        {
            "bufferView" : 9, 
            "componentType" : 5121, 
            "count" : 186, 
            "max" : [
                63
            ], 
            "min" : [
                0
            ], 
            "type" : "SCALAR"
        }, 
        {
            "bufferView" : 10, 
            "componentType" : 5126, 
            "count" : 64, 
            "max" : [
                2.976999521255493, 
                0.19999998807907104, 
                2.968003511428833
            ], 
            "min" : [
                -2.976999521255493, 
                -0.19999998807907104, 
                -2.789980888366699
            ], 
            "type" : "VEC3"
        }, 
        {
            "bufferView" : 11, 
            "componentType" : 5126, 
            "count" : 64, 
            "max" : [
                0.9989928603172302, 
                0.0, 
                0.9959715604782104
            ], 
            "min" : [
                -0.9989928603172302, 
                0.0, 
                -0.9009674191474915
            ], 
            "type" : "VEC3"
        }, 
        {
            "bufferView" : 12, 
            "componentType" : 5123, 
            "count" : 768, 
            "max" : [
                383
            ], 
            "min" : [
                0
            ], 
            "type" : "SCALAR"
        }, 
        {
            "bufferView" : 13, 
            "componentType" : 5126, 
            "count" : 384, 
            "max" : [
                3.0, 
                0.1733858585357666, 
                3.0
            ], 
            "min" : [
                -3.0, 
                -0.1733858585357666, 
                -3.0
            ], 
            "type" : "VEC3"
        }, 
        {
            "bufferView" : 14, 
            "componentType" : 5126, 
            "count" : 384, 
            "max" : [
                0.9951881766319275, 
                1.0, 
                0.9951881170272827
            ], 
            "min" : [
                -0.9951880574226379, 
                -1.0, 
                -0.9951879978179932
            ], 
            "type" : "VEC3"
        }, 
        {
            "bufferView" : 15, 
            "componentType" : 5121, 
            "count" : 408, 
            "max" : [
                209
            ], 
            "min" : [
                0
            ], 
            "type" : "SCALAR"
        }, 
        {
            "bufferView" : 16, 
            "componentType" : 5126, 
            "count" : 210, 
            "max" : [
                0.9989930987358093, 
                0.30000314116477966, 
                0.9959743022918701
            ], 
            "min" : [
                -0.9989930987358093, 
                -0.30000314116477966, 
                -1.0
            ], 
            "type" : "VEC3"
        }, 
        {
            "bufferView" : 17, 
            "componentType" : 5126, 
            "count" : 210, 
            "max" : [
                0.9989930987358093, 
                1.0, 
                1.0
            ], 
            "min" : [
                -0.9989929795265198, 
                -1.0, 
                -0.9959743618965149
            ], 
            "type" : "VEC3"
        }
    ], 
    "asset" : {
        "generator" : "Khronos Blender glTF 2.0 exporter", 
        "version" : "2.0"
    }, 
    "bufferViews" : [
        {
            "buffer" : 0, 
            "byteLength" : 180, 
            "byteOffset" : 0, 
            "target" : 34963
        }, 
        {
            "buffer" : 0, 
            "byteLength" : 744, 
            "byteOffset" : 180, 
            "target" : 34962
        }, 
        {
            "buffer" : 0, 
            "byteLength" : 744, 
            "byteOffset" : 924, 
            "target" : 34962
        }, 
        {
            "buffer" : 0, 
            "byteLength" : 1536, 
            "byteOffset" : 1668, 
            "target" : 34963
        }, 
        {
            "buffer" : 0, 
            "byteLength" : 5088, 
            "byteOffset" : 3204, 
            "target" : 34962
        }, 
        {
            "buffer" : 0, 
            "byteLength" : 5088, 
            "byteOffset" : 8292, 
            "target" : 34962
        }, 
        {
            "buffer" : 0, 
            "byteLength" : 36, 
            "byteOffset" : 13380, 
            "target" : 34963
        }, 
        {
            "buffer" : 0, 
            "byteLength" : 288, 
            "byteOffset" : 13416, 
            "target" : 34962
        }, 
        {
            "buffer" : 0, 
            "byteLength" : 288, 
            "byteOffset" : 13704, 
            "target" : 34962
        }, 
        {
            "buffer" : 0, 
            "byteLength" : 186, 
            "byteOffset" : 13992, 
            "target" : 34963
        }, 
        {
            "buffer" : 0, 
            "byteLength" : 768, 
            "byteOffset" : 14180, 
            "target" : 34962
        }, 
        {
            "buffer" : 0, 
            "byteLength" : 768, 
            "byteOffset" : 14948, 
            "target" : 34962
        }, 
        {
            "buffer" : 0, 
            "byteLength" : 1536, 
            "byteOffset" : 15716, 
            "target" : 34963
        }, 
        {
            "buffer" : 0, 
            "byteLength" : 4608, 
            "byteOffset" : 17252, 
            "target" : 34962
        }, 
        {
            "buffer" : 0, 
            "byteLength" : 4608, 
            "byteOffset" : 21860, 
            "target" : 34962
        }, 
        {
            "buffer" : 0, 
            "byteLength" : 408, 
            "byteOffset" : 26468, 
            "target" : 34963
        }, 
        {
            "buffer" : 0, 
            "byteLength" : 2520, 
            "byteOffset" : 26876, 
            "target" : 34962
        }, 
        {
            "buffer" : 0, 
            "byteLength" : 2520, 
            "byteOffset" : 29396, 
            "target" : 34962
        }
    ], 
    "buffers" : [
        {
            "byteLength" : 31916, 
            "uri" : "logo002.bin"
        }
    ], 
    "meshes" : [
        {
            "name" : "Cylinder.004", 
            "primitives" : [
                {
                    "attributes" : {
                        "NORMAL" : 2, 
                        "POSITION" : 1
                    }, 
                    "indices" : 0
                }
            ]
        }, 
        {
            "name" : "Cylinder.001", 
            "primitives" : [
                {
                    "attributes" : {
                        "NORMAL" : 5, 
                        "POSITION" : 4
                    }, 
                    "indices" : 3
                }
            ]
        }, 
        {
            "name" : "Cube.002", 
            "primitives" : [
                {
                    "attributes" : {
                        "NORMAL" : 8, 
                        "POSITION" : 7
                    }, 
                    "indices" : 6
                }
            ]
        }, 
        {
            "name" : "Cylinder.003", 
            "primitives" : [
                {
                    "attributes" : {
                        "NORMAL" : 11, 
                        "POSITION" : 10
                    }, 
                    "indices" : 9
                }
            ]
        }, 
        {
            "name" : "Cylinder.005", 
            "primitives" : [
                {
                    "attributes" : {
                        "NORMAL" : 14, 
                        "POSITION" : 13
                    }, 
                    "indices" : 12
                }
            ]
        }, 
        {
            "name" : "Cylinder.002", 
            "primitives" : [
                {
                    "attributes" : {
                        "NORMAL" : 17, 
                        "POSITION" : 16
                    }, 
                    "indices" : 15
                }
            ]
        }
    ], 
    "nodes" : [
        {
            "name" : "Camera", 
            "rotation" : [
                0.2792017161846161, 
                -0.3997473418712616, 
                0.15375593304634094, 
                0.8594228625297546
            ], 
            "scale" : [
                1.0836327075958252, 
                2.2049875259399414, 
                1.3159875869750977
            ], 
            "translation" : [
                -6.708661079406738, 
                10.615799903869629, 
                5.199642658233643
            ]
        }, 
        {
            "mesh" : 2, 
            "name" : "Cube", 
            "scale" : [
                0.8840978741645813, 
                0.8840978741645813, 
                0.8840978145599365
            ], 
            "translation" : [
                -0.043923377990722656, 
                -0.023296833038330078, 
                -4.177309513092041
            ]
        }, 
        {
            "mesh" : 5, 
            "name" : "Cylinder"
        }, 
        {
            "mesh" : 3, 
            "name" : "Cylinder.001"
        }, 
        {
            "mesh" : 0, 
            "name" : "Cylinder.002"
        }, 
        {
            "mesh" : 1, 
            "name" : "Cylinder.003"
        }, 
        {
            "mesh" : 4, 
            "name" : "Cylinder.004", 
            "scale" : [
                1.6520828008651733, 
                1.6520828008651733, 
                1.6520828008651733
            ], 
            "translation" : [
                -0.014000737108290195, 
                0.00018420735432300717, 
                -0.015230372548103333
            ]
        }, 
        {
            "name" : "Lamp", 
            "rotation" : [
                0.16907575726509094, 
                0.7558802962303162, 
                -0.27217137813568115, 
                0.570947527885437
            ], 
            "scale" : [
                1.0, 
                1.0, 
                0.9999999403953552
            ], 
            "translation" : [
                4.076245307922363, 
                5.903861999511719, 
                -1.0054539442062378
            ]
        }, 
        {
            "name" : "Torus.003"
        }
    ], 
    "scene" : 0, 
    "scenes" : [
        {
            "name" : "Scene", 
            "nodes" : [
                6, 
                5, 
                1, 
                4, 
                3, 
                2, 
                8, 
                7, 
                0
            ]
        }
    ]
}
